<?xml version="1.0" encoding="UTF-8" standalone="no" ?>
<!DOCTYPE svg PUBLIC "-//W3C//DTD SVG 1.1//EN" "http://www.w3.org/Graphics/SVG/1.1/DTD/svg11.dtd">
<svg xmlns="http://www.w3.org/2000/svg" xmlns:xlink="http://www.w3.org/1999/xlink" version="1.1" width="1080" height="1080" viewBox="0 0 1080 1080" xml:space="preserve">
<desc>Created with Fabric.js 5.2.4</desc>
<defs>
</defs>
<g transform="matrix(1 0 0 1 540 540)" id="539f278e-7705-4ccd-b0bc-aa3d208c9e22"  >
<rect style="stroke: none; stroke-width: 1; stroke-dasharray: none; stroke-linecap: butt; stroke-dashoffset: 0; stroke-linejoin: miter; stroke-miterlimit: 4; fill: rgb(255,255,255); fill-rule: nonzero; opacity: 1; visibility: hidden;" vector-effect="non-scaling-stroke"  x="-540" y="-540" rx="0" ry="0" width="1080" height="1080" />
</g>
<g transform="matrix(1 0 0 1 540 540)" id="e4bd4c41-a592-4099-827b-3d8521eceda4"  >
</g>
<g transform="matrix(26.34 0 0 26.34 540 540)"  >
<path style="stroke: none; stroke-width: 1; stroke-dasharray: none; stroke-linecap: butt; stroke-dashoffset: 0; stroke-linejoin: miter; stroke-miterlimit: 4; fill: rgb(17,70,57); fill-rule: nonzero; opacity: 1;"  transform=" translate(-20.5, -20)" d="M 37.5327 9.74743 C 35.6161 7.83724 33.0679 6.78524 30.3575 6.78524 C 30.266 6.78524 30.1748 6.78667 30.0836 6.78905 C 28.701 2.84057 24.9272 0 20.4999 0 C 16.0728 0 12.2991 2.84057 10.9164 6.78905 C 10.8254 6.78667 10.734 6.78524 10.6425 6.78524 C 7.93202 6.78524 5.38383 7.83724 3.46736 9.74743 C -0.489119 13.6908 -0.489119 20.1069 3.46736 24.0502 L 6.31926 26.8927 C 6.02441 27.839 5.86536 28.8446 5.86536 29.8865 C 5.86536 35.463 10.4175 40 16.0126 40 L 24.9876 40 C 30.5829 40 35.1349 35.463 35.1349 29.8864 C 35.1349 28.8446 34.9758 27.839 34.681 26.8927 L 37.5329 24.0502 C 41.4891 20.1069 41.4891 13.6908 37.5327 9.74743 Z M 32.7744 29.3951 L 30.2134 28.2831 C 26.8936 26.8414 23.0421 27.0632 19.9111 28.8761 C 17.4222 30.317 14.3613 30.4931 11.7225 29.3474 L 8.45964 27.9306 C 9.33212 24.5859 12.3875 22.1093 16.0125 22.1093 L 24.9876 22.1093 C 29.1244 22.1092 32.5192 25.3349 32.7744 29.3951 Z M 16.1598 11.3996 L 22.5062 17.725 C 23.1232 18.3398 23.6139 19.0332 23.9803 19.7728 L 16.329 19.7728 C 15.6281 19.4192 14.8873 19.1361 14.116 18.9323 C 11.3339 18.1972 9.0445 16.1644 7.99155 13.4947 L 6.68869 10.1909 C 7.87441 9.4939 9.22964 9.12181 10.6425 9.12181 C 12.7267 9.12181 14.6862 9.93067 16.1598 11.3996 Z M 24.1639 16.0728 L 22.1576 14.0731 L 24.84 11.3996 C 26.3137 9.93067 28.2733 9.12181 30.3575 9.12181 C 32.2766 9.12181 34.0896 9.80809 35.5155 11.0634 L 32.9154 12.0821 C 29.762 13.3175 27.3129 15.9106 26.2507 19.0969 C 25.7602 17.9995 25.0657 16.9716 24.1639 16.0728 Z M 27.7053 7.13295 C 26.0105 7.58724 24.4568 8.47733 23.1825 9.74743 L 20.718 12.2037 C 20.0582 10.1336 20.1562 7.86152 21.0407 5.83828 L 22.4622 2.58619 C 24.8374 3.20171 26.7752 4.90743 27.7053 7.13295 Z M 20.0066 2.35371 L 18.8914 4.90505 C 18.1989 6.48905 17.89 8.19438 17.9549 9.88429 L 17.8175 9.74733 C 16.5433 8.47724 14.9895 7.58724 13.2948 7.13286 C 14.4106 4.46371 16.9762 2.54333 20.0066 2.35371 Z M 5.12488 22.398 C 2.19964 19.4824 2.08764 14.809 4.78783 11.7582 L 5.80964 14.3494 C 6.92593 17.1799 9.14698 19.4411 11.9125 20.636 C 10.0183 21.4732 8.42717 22.8718 7.35336 24.619 L 5.12488 22.398 Z M 24.9875 37.6634 L 16.0125 37.6634 C 11.8755 37.6634 8.48088 34.4378 8.22564 30.3775 L 10.7862 31.4894 C 12.2388 32.1203 13.7927 32.4326 15.344 32.4326 C 17.338 32.4326 19.3275 31.9162 21.0887 30.8966 C 23.5775 29.4556 26.6385 29.2795 29.2771 30.4251 L 32.5403 31.8422 C 31.6678 35.1868 28.6124 37.6634 24.9875 37.6634 Z M 33.6466 24.619 C 32.4315 22.6419 30.5541 21.1113 28.3245 20.3352 C 29.0678 17.574 31.1027 15.3028 33.773 14.2567 L 37.0858 12.9589 C 38.8418 15.9387 38.4383 19.8432 35.8751 22.398 L 33.6466 24.619 Z" stroke-linecap="round" />
</g>
</svg>