<svg xmlns="http://www.w3.org/2000/svg" viewBox="-5.0 -10.0 110.0 135.0" x="0px" y="0px"><title>16. Coffee</title><g data-name="Layer 59"><g data-name="Layer 58"><path d="M52.06,10.43A28.72,28.72,0,0,0,23.33,39v.42c.08,15.56,8.36,29.53,16,39.13a96.85,96.85,0,0,0,12.72,13.3S80.63,68.37,80.78,39.39V39A28.72,28.72,0,0,0,52.06,10.43ZM52,58.57A20.13,20.13,0,1,1,72.09,38.44,20.14,20.14,0,0,1,52,58.57Z"/><path d="M50.42,39.35c-8.3-6.79-4.48-16.48-4.38-16.71a7.93,7.93,0,0,0-1.23.46c-6.43,3-8.44,12.27-4.5,20.75,3.1,6.69,9,10.88,14.49,10.88a10,10,0,0,0,1.9-.19C56.87,54.28,60.8,47.84,50.42,39.35Z"/><path d="M49.07,22.17a10.35,10.35,0,0,0-3,.46c0,.22-.65,7.07,8.26,14C65.05,45,57,54.27,56.71,54.54a10,10,0,0,0,2.35-.74c6.42-3,8.44-12.27,4.5-20.75C60.45,26.36,54.56,22.17,49.07,22.17Z"/></g></g><text x="0.0" y="117.5" font-size="5.0" font-weight="bold" font-family="Arbeit Regular, Helvetica, Arial-Unicode, Arial, Sans-serif" fill="#000000">Created by insdesign86</text><text x="0.0" y="122.5" font-size="5.0" font-weight="bold" font-family="Arbeit Regular, Helvetica, Arial-Unicode, Arial, Sans-serif" fill="#000000">from Noun Project</text></svg>